<svg id="SvgjsSvg1001" width="350" height="140" xmlns="http://www.w3.org/2000/svg" version="1.1" xmlns:xlink="http://www.w3.org/1999/xlink" xmlns:svgjs="http://svgjs.com/svgjs"><defs id="SvgjsDefs1002"></defs><g id="SvgjsG1008" transform="matrix(1,0,0,1,0,0)"><svg xmlns="http://www.w3.org/2000/svg" xmlns:xlink="http://www.w3.org/1999/xlink" width="350" height="140"><defs><linearGradient id="c" x1="50%" x2="50%" y1=".779%" y2="100%"><stop offset="0%" stop-color="#f4fa9c" stop-opacity="0" class="stopColor0989B4 svgShape"></stop><stop offset="99.94%" stop-color="#88bef5" class="stopColor53FFEE svgShape"></stop></linearGradient><linearGradient id="d" x1="50%" x2="50%" y1=".779%" y2="100%"><stop offset="0%" stop-color="#f4fa9c" stop-opacity="0" class="stopColor0989B4 svgShape"></stop><stop offset="99.94%" stop-color="#88bef5" class="stopColor53FFEE svgShape"></stop></linearGradient><path id="a" d="M0 0h350v140H0z" fill="#a2266f" class="color000 svgShape"></path></defs><g fill="none" fill-rule="evenodd"><mask id="b" fill="#fff"><use xlink:href="#a"></use></mask><use fill="#41CBD3" xlink:href="#a"></use><g mask="url(#b)" opacity=".5" fill="#a2266f" class="color000 svgShape"><g transform="translate(-11 -4)" fill="#a2266f" class="color000 svgShape"><ellipse cx="60.479" cy="14.8" fill="url(#c)" rx="14.8" ry="14.834" transform="rotate(90 60.479 14.8)"></ellipse><ellipse cx="14.834" cy="14.8" fill="url(#d)" rx="14.834" ry="14.8" transform="rotate(180 14.834 14.8)"></ellipse><ellipse cx="151.767" cy="14.8" fill="url(#d)" rx="14.834" ry="14.8"></ellipse><ellipse cx="106.123" cy="14.8" fill="url(#c)" rx="14.8" ry="14.834" transform="rotate(-90 106.123 14.8)"></ellipse><ellipse cx="243.055" cy="14.8" fill="url(#c)" rx="14.8" ry="14.834" transform="rotate(90 243.055 14.8)"></ellipse><ellipse cx="197.411" cy="14.8" fill="url(#d)" rx="14.834" ry="14.8" transform="rotate(180 197.411 14.8)"></ellipse><ellipse cx="334.344" cy="14.8" fill="url(#d)" rx="14.834" ry="14.8"></ellipse><ellipse cx="288.699" cy="14.8" fill="url(#c)" rx="14.8" ry="14.834" transform="rotate(-90 288.7 14.8)"></ellipse></g><g transform="translate(-11 91.63)" fill="#a2266f" class="color000 svgShape"><ellipse cx="60.479" cy="14.8" fill="url(#c)" rx="14.8" ry="14.834" transform="rotate(90 60.479 14.8)"></ellipse><ellipse cx="14.834" cy="14.8" fill="url(#d)" rx="14.834" ry="14.8" transform="rotate(180 14.834 14.8)"></ellipse><ellipse cx="151.767" cy="14.8" fill="url(#d)" rx="14.834" ry="14.8"></ellipse><ellipse cx="106.123" cy="14.8" fill="url(#c)" rx="14.8" ry="14.834" transform="rotate(-90 106.123 14.8)"></ellipse><ellipse cx="243.055" cy="14.8" fill="url(#c)" rx="14.8" ry="14.834" transform="rotate(90 243.055 14.8)"></ellipse><ellipse cx="197.411" cy="14.8" fill="url(#d)" rx="14.834" ry="14.8" transform="rotate(180 197.411 14.8)"></ellipse><ellipse cx="334.344" cy="14.8" fill="url(#d)" rx="14.834" ry="14.8"></ellipse><ellipse cx="288.699" cy="14.8" fill="url(#c)" rx="14.8" ry="14.834" transform="rotate(-90 288.7 14.8)"></ellipse></g><g transform="translate(-11 43.815)" fill="#a2266f" class="color000 svgShape"><ellipse cx="60.479" cy="14.8" fill="url(#c)" rx="14.8" ry="14.834" transform="rotate(-90 60.479 14.8)"></ellipse><ellipse cx="14.834" cy="14.8" fill="url(#d)" rx="14.834" ry="14.8"></ellipse><ellipse cx="151.767" cy="14.8" fill="url(#d)" rx="14.834" ry="14.8"></ellipse><ellipse cx="106.123" cy="14.8" fill="url(#c)" rx="14.8" ry="14.834" transform="rotate(90 106.123 14.8)"></ellipse><ellipse cx="243.055" cy="14.8" fill="url(#c)" rx="14.8" ry="14.834" transform="rotate(-90 243.055 14.8)"></ellipse><ellipse cx="197.411" cy="14.8" fill="url(#d)" rx="14.834" ry="14.8"></ellipse><ellipse cx="334.344" cy="14.8" fill="url(#d)" rx="14.834" ry="14.8"></ellipse><ellipse cx="288.699" cy="14.8" fill="url(#c)" rx="14.8" ry="14.834" transform="rotate(90 288.7 14.8)"></ellipse></g><g transform="translate(11.822 18.77)" fill="#a2266f" class="color000 svgShape"><ellipse cx="60.479" cy="14.8" fill="url(#c)" rx="14.8" ry="14.834" transform="rotate(90 60.479 14.8)"></ellipse><ellipse cx="14.834" cy="14.8" fill="url(#d)" rx="14.834" ry="14.8" transform="rotate(180 14.834 14.8)"></ellipse><ellipse cx="151.767" cy="14.8" fill="url(#d)" rx="14.834" ry="14.8"></ellipse><ellipse cx="106.123" cy="14.8" fill="url(#c)" rx="14.8" ry="14.834" transform="rotate(-90 106.123 14.8)"></ellipse><ellipse cx="243.055" cy="14.8" fill="url(#c)" rx="14.8" ry="14.834" transform="rotate(90 243.055 14.8)"></ellipse><ellipse cx="197.411" cy="14.8" fill="url(#d)" rx="14.834" ry="14.8" transform="rotate(180 197.411 14.8)"></ellipse><ellipse cx="334.344" cy="14.8" fill="url(#d)" rx="14.834" ry="14.8"></ellipse><ellipse cx="288.699" cy="14.8" fill="url(#c)" rx="14.8" ry="14.834" transform="rotate(-90 288.7 14.8)"></ellipse></g><g transform="translate(11.822 114.4)" fill="#a2266f" class="color000 svgShape"><ellipse cx="60.479" cy="14.8" fill="url(#c)" rx="14.8" ry="14.834" transform="rotate(90 60.479 14.8)"></ellipse><ellipse cx="14.834" cy="14.8" fill="url(#d)" rx="14.834" ry="14.8" transform="rotate(180 14.834 14.8)"></ellipse><ellipse cx="151.767" cy="14.8" fill="url(#d)" rx="14.834" ry="14.8"></ellipse><ellipse cx="106.123" cy="14.8" fill="url(#c)" rx="14.8" ry="14.834" transform="rotate(-90 106.123 14.8)"></ellipse><ellipse cx="243.055" cy="14.8" fill="url(#c)" rx="14.8" ry="14.834" transform="rotate(90 243.055 14.8)"></ellipse><ellipse cx="197.411" cy="14.8" fill="url(#d)" rx="14.834" ry="14.8" transform="rotate(180 197.411 14.8)"></ellipse><ellipse cx="334.344" cy="14.8" fill="url(#d)" rx="14.834" ry="14.8"></ellipse><ellipse cx="288.699" cy="14.8" fill="url(#c)" rx="14.8" ry="14.834" transform="rotate(-90 288.7 14.8)"></ellipse></g><g transform="translate(11.822 66.585)" fill="#a2266f" class="color000 svgShape"><ellipse cx="60.479" cy="14.8" fill="url(#c)" rx="14.8" ry="14.834" transform="rotate(-90 60.479 14.8)"></ellipse><ellipse cx="14.834" cy="14.8" fill="url(#d)" rx="14.834" ry="14.8"></ellipse><ellipse cx="151.767" cy="14.8" fill="url(#d)" rx="14.834" ry="14.8"></ellipse><ellipse cx="106.123" cy="14.8" fill="url(#c)" rx="14.8" ry="14.834" transform="rotate(90 106.123 14.8)"></ellipse><ellipse cx="243.055" cy="14.8" fill="url(#c)" rx="14.8" ry="14.834" transform="rotate(-90 243.055 14.8)"></ellipse><ellipse cx="197.411" cy="14.8" fill="url(#d)" rx="14.834" ry="14.8"></ellipse><ellipse cx="334.344" cy="14.8" fill="url(#d)" rx="14.834" ry="14.8"></ellipse><ellipse cx="288.699" cy="14.8" fill="url(#c)" rx="14.8" ry="14.834" transform="rotate(90 288.7 14.8)"></ellipse></g></g></g></svg></g></svg>